<svg width="196" height="32" viewBox="0 0 196 32" fill="none" xmlns="http://www.w3.org/2000/svg">
<defs>
<linearGradient id="markFill" x1="0" y1="0" x2="30" y2="30" gradientUnits="userSpaceOnUse">
<stop offset="0" stop-color="#1D4ED8"/>
<stop offset="0.55" stop-color="#2563EB"/>
<stop offset="1" stop-color="#22D3EE"/>
</linearGradient>
<linearGradient id="markSheen" x1="4" y1="2" x2="22" y2="16" gradientUnits="userSpaceOnUse">
<stop offset="0" stop-color="white" stop-opacity="0.45"/>
<stop offset="1" stop-color="white" stop-opacity="0"/>
</linearGradient>
<filter id="markShadow" x="-6" y="-4" width="42" height="42" filterUnits="userSpaceOnUse">
<feDropShadow dx="0" dy="2" stdDeviation="2.2" flood-color="#1D4ED8" flood-opacity="0.45"/>
</filter>
</defs>

<g filter="url(#markShadow)">
<rect x="1" y="1" width="30" height="30" rx="9.5" fill="url(#markFill)"/>
<path d="M1 10.5C1 5.253 5.253 1 10.5 1H22V10C22 16.0751 17.0751 21 11 21H1V10.5Z" fill="url(#markSheen)"/>
<rect x="1.5" y="1.5" width="29" height="29" rx="9" stroke="white" stroke-opacity="0.16"/>
</g>

<path d="M13.4 10.4L8.2 16L13.4 21.6" stroke="white" stroke-width="2.3" stroke-linecap="round" stroke-linejoin="round"/>
<path d="M18.6 10.4L23.8 16L18.6 21.6" stroke="white" stroke-width="2.3" stroke-linecap="round" stroke-linejoin="round" stroke-opacity="0.55"/>
<rect x="15.3" y="8.5" width="1.6" height="15" rx="0.8" fill="white"/>

<text x="42" y="21.5" font-family="'Inter Tight', Arial, sans-serif" font-size="17.5" font-weight="700" letter-spacing="-0.4" fill="white">contreras<tspan fill="#60A5FA">.dev</tspan></text>
</svg>
